<?xml version="1.0" encoding="UTF-8" standalone="no"?>
<!DOCTYPE svg PUBLIC "-//W3C//DTD SVG 1.1//EN"
 "http://www.w3.org/Graphics/SVG/1.1/DTD/svg11.dtd">
<!-- Generated by graphviz version 2.39.20140508.0445 (20140508.0445)
 -->
<!-- Title: whitePages Pages: 1 -->
<svg width="986pt" height="353pt"
 viewBox="0.00 0.00 986.50 353.00" xmlns="http://www.w3.org/2000/svg" xmlns:xlink="http://www.w3.org/1999/xlink">
<g id="graph0" class="graph" transform="scale(1 1) rotate(0) translate(4 349)">
<title>whitePages</title>
<polygon fill="white" stroke="none" points="-4,4 -4,-349 982.5,-349 982.5,4 -4,4"/>
<!-- Adrianne Matthews\nPerson\nb3134c99&#45;9ebf&#45;43bb&#45;85e7&#45;a2b\nDurable -->
<g id="node1" class="node"><title>Adrianne Matthews\nPerson\nb3134c99&#45;9ebf&#45;43bb&#45;85e7&#45;a2b\nDurable</title>
<g id="a_node1"><a xlink:href="#https://proapi.whitepages.com/2.0/entity/Person.b3134c99-9ebf-43bb-85e7-a2b54a80b898.Durable.json?api_key=6b5a968507f728b72bac005321001c28" xlink:title="Name: Adrianne Matthews&#10;Type: Person&#10;Age: 30 &#45; 34&#10;">
<path fill="none" stroke="#8dbd40" d="M511,-300.5C511,-300.5 612,-300.5 612,-300.5 618,-300.5 624,-306.5 624,-312.5 624,-312.5 624,-332.5 624,-332.5 624,-338.5 618,-344.5 612,-344.5 612,-344.5 511,-344.5 511,-344.5 505,-344.5 499,-338.5 499,-332.5 499,-332.5 499,-312.5 499,-312.5 499,-306.5 505,-300.5 511,-300.5"/>
<text text-anchor="middle" x="561.5" y="-334.1" font-family="Arial" font-size="8.00">Adrianne Matthews</text>
<text text-anchor="middle" x="561.5" y="-325.1" font-family="Arial" font-size="8.00">Person</text>
<text text-anchor="middle" x="561.5" y="-316.1" font-family="Arial" font-size="8.00">b3134c99&#45;9ebf&#45;43bb&#45;85e7&#45;a2b</text>
<text text-anchor="middle" x="561.5" y="-307.1" font-family="Arial" font-size="8.00">Durable</text>
</a>
</g>
</g>
<!-- 6112 14th Ave NW Apt 3\nSeattle, WA 98107&#45;2913\nLocation\n3c464bff&#45;7a5d&#45;4457&#45;92af&#45;02f\nDurable -->
<g id="node4" class="node"><title>6112 14th Ave NW Apt 3\nSeattle, WA 98107&#45;2913\nLocation\n3c464bff&#45;7a5d&#45;4457&#45;92af&#45;02f\nDurable</title>
<g id="a_node4"><a xlink:href="#https://proapi.whitepages.com/2.0/entity/Location.3c464bff-7a5d-4457-92af-02f973a63903.Durable.json?api_key=6b5a968507f728b72bac005321001c28" xlink:title="Usage: Residential&#10;Receiving Mail: Yes&#10;Delivery Point: MultiUnit">
<polygon fill="#46a3cc" stroke="#46a3cc" points="621.5,-248 501.5,-248 501.5,-195 621.5,-195 621.5,-248"/>
<text text-anchor="middle" x="561.5" y="-237.6" font-family="Arial" font-size="8.00" fill="white">6112 14th Ave NW Apt 3</text>
<text text-anchor="middle" x="561.5" y="-228.6" font-family="Arial" font-size="8.00" fill="white">Seattle, WA 98107&#45;2913</text>
<text text-anchor="middle" x="561.5" y="-219.6" font-family="Arial" font-size="8.00" fill="white">Location</text>
<text text-anchor="middle" x="561.5" y="-210.6" font-family="Arial" font-size="8.00" fill="white">3c464bff&#45;7a5d&#45;4457&#45;92af&#45;02f</text>
<text text-anchor="middle" x="561.5" y="-201.6" font-family="Arial" font-size="8.00" fill="white">Durable</text>
</a>
</g>
</g>
<!-- Adrianne Matthews\nPerson\nb3134c99&#45;9ebf&#45;43bb&#45;85e7&#45;a2b\nDurable&#45;&gt;6112 14th Ave NW Apt 3\nSeattle, WA 98107&#45;2913\nLocation\n3c464bff&#45;7a5d&#45;4457&#45;92af&#45;02f\nDurable -->
<g id="edge1" class="edge"><title>Adrianne Matthews\nPerson\nb3134c99&#45;9ebf&#45;43bb&#45;85e7&#45;a2b\nDurable&#45;&gt;6112 14th Ave NW Apt 3\nSeattle, WA 98107&#45;2913\nLocation\n3c464bff&#45;7a5d&#45;4457&#45;92af&#45;02f\nDurable</title>
<path fill="none" stroke="#959595" stroke-width="1.3" d="M540.057,-257.532 537.424,-265.473 536.325,-273.942 538.5,-282 540.196,-288.282 543.165,-294.593 546.418,-300.269"/>
<polygon fill="#959595" stroke="#959595" stroke-width="1.3" points="543.34,-258.75 543.913,-248.171 536.868,-256.084 543.34,-258.75"/>
<text text-anchor="middle" x="551" y="-272.4" font-family="Arial" font-size="7.00">location</text>
</g>
<!-- Tim P Bush\nPerson\ncd8a8ee8&#45;38a1&#45;4bb6&#45;a1f5&#45;650\nDurable -->
<g id="node2" class="node"><title>Tim P Bush\nPerson\ncd8a8ee8&#45;38a1&#45;4bb6&#45;a1f5&#45;650\nDurable</title>
<g id="a_node2"><a xlink:href="#https://proapi.whitepages.com/2.0/entity/Person.cd8a8ee8-38a1-4bb6-a1f5-650116889f99.Durable.json?api_key=6b5a968507f728b72bac005321001c28" xlink:title="Name: Tim P Bush&#10;Type: Person&#10;Age: 45 &#45; 49&#10;">
<path fill="none" stroke="#8dbd40" d="M439,-98.5C439,-98.5 540,-98.5 540,-98.5 546,-98.5 552,-104.5 552,-110.5 552,-110.5 552,-130.5 552,-130.5 552,-136.5 546,-142.5 540,-142.5 540,-142.5 439,-142.5 439,-142.5 433,-142.5 427,-136.5 427,-130.5 427,-130.5 427,-110.5 427,-110.5 427,-104.5 433,-98.5 439,-98.5"/>
<text text-anchor="middle" x="489.5" y="-132.1" font-family="Arial" font-size="8.00">Tim P Bush</text>
<text text-anchor="middle" x="489.5" y="-123.1" font-family="Arial" font-size="8.00">Person</text>
<text text-anchor="middle" x="489.5" y="-114.1" font-family="Arial" font-size="8.00">cd8a8ee8&#45;38a1&#45;4bb6&#45;a1f5&#45;650</text>
<text text-anchor="middle" x="489.5" y="-105.1" font-family="Arial" font-size="8.00">Durable</text>
</a>
</g>
</g>
<!-- Tim P Bush\nPerson\ncd8a8ee8&#45;38a1&#45;4bb6&#45;a1f5&#45;650\nDurable&#45;&gt;6112 14th Ave NW Apt 3\nSeattle, WA 98107&#45;2913\nLocation\n3c464bff&#45;7a5d&#45;4457&#45;92af&#45;02f\nDurable -->
<g id="edge9" class="edge"><title>Tim P Bush\nPerson\ncd8a8ee8&#45;38a1&#45;4bb6&#45;a1f5&#45;650\nDurable&#45;&gt;6112 14th Ave NW Apt 3\nSeattle, WA 98107&#45;2913\nLocation\n3c464bff&#45;7a5d&#45;4457&#45;92af&#45;02f\nDurable</title>
<path fill="none" stroke="#959595" stroke-width="1.3" d="M504.978,-142.783C514.237,-155.513 526.215,-171.983 536.759,-186.481"/>
<polygon fill="#959595" stroke="#959595" stroke-width="1.3" points="534.058,-188.719 542.771,-194.747 539.72,-184.601 534.058,-188.719"/>
<text text-anchor="middle" x="543" y="-167.4" font-family="Arial" font-size="7.00">location</text>
</g>
<!-- 517 19th Ave\nSeattle, WA 98122&#45;5739\nLocation\nec5dccea&#45;7708&#45;4a33&#45;89d0&#45;fe5\nDurable -->
<g id="node5" class="node"><title>517 19th Ave\nSeattle, WA 98122&#45;5739\nLocation\nec5dccea&#45;7708&#45;4a33&#45;89d0&#45;fe5\nDurable</title>
<g id="a_node5"><a xlink:href="#https://proapi.whitepages.com/2.0/entity/Location.ec5dccea-7708-4a33-89d0-fe55be5d818b.Durable.json?api_key=6b5a968507f728b72bac005321001c28" xlink:title="Usage: Residential&#10;Receiving Mail: Yes&#10;Delivery Point: SingleUnit">
<path fill="none" stroke="#46a3cc" d="M12,-0.5C12,-0.5 113,-0.5 113,-0.5 119,-0.5 125,-6.5 125,-12.5 125,-12.5 125,-41.5 125,-41.5 125,-47.5 119,-53.5 113,-53.5 113,-53.5 12,-53.5 12,-53.5 6,-53.5 0,-47.5 0,-41.5 0,-41.5 0,-12.5 0,-12.5 0,-6.5 6,-0.5 12,-0.5"/>
<text text-anchor="middle" x="62.5" y="-43.1" font-family="Arial" font-size="8.00">517 19th Ave</text>
<text text-anchor="middle" x="62.5" y="-34.1" font-family="Arial" font-size="8.00">Seattle, WA 98122&#45;5739</text>
<text text-anchor="middle" x="62.5" y="-25.1" font-family="Arial" font-size="8.00">Location</text>
<text text-anchor="middle" x="62.5" y="-16.1" font-family="Arial" font-size="8.00">ec5dccea&#45;7708&#45;4a33&#45;89d0&#45;fe5</text>
<text text-anchor="middle" x="62.5" y="-7.1" font-family="Arial" font-size="8.00">Durable</text>
</a>
</g>
</g>
<!-- Tim P Bush\nPerson\ncd8a8ee8&#45;38a1&#45;4bb6&#45;a1f5&#45;650\nDurable&#45;&gt;517 19th Ave\nSeattle, WA 98122&#45;5739\nLocation\nec5dccea&#45;7708&#45;4a33&#45;89d0&#45;fe5\nDurable -->
<g id="edge2" class="edge"><title>Tim P Bush\nPerson\ncd8a8ee8&#45;38a1&#45;4bb6&#45;a1f5&#45;650\nDurable&#45;&gt;517 19th Ave\nSeattle, WA 98122&#45;5739\nLocation\nec5dccea&#45;7708&#45;4a33&#45;89d0&#45;fe5\nDurable</title>
<path fill="none" stroke="#959595" stroke-width="1.3" d="M134.847,-53.9141 242.366,-82.4561 357.547,-101.141 426.922,-111.129"/>
<polygon fill="#959595" stroke="#959595" stroke-width="1.3" points="135.701,-50.5192 125.135,-51.3028 133.883,-57.2792 135.701,-50.5192"/>
<text text-anchor="middle" x="255.5" y="-74.4" font-family="Arial" font-size="7.00">historical</text>
</g>
<!-- 6812 Phinney Ave N\nSeattle, WA 98103&#45;5238\nLocation\neb1e6cd8&#45;eda2&#45;4f36&#45;8ac0&#45;7e0\nDurable -->
<g id="node6" class="node"><title>6812 Phinney Ave N\nSeattle, WA 98103&#45;5238\nLocation\neb1e6cd8&#45;eda2&#45;4f36&#45;8ac0&#45;7e0\nDurable</title>
<g id="a_node6"><a xlink:href="#https://proapi.whitepages.com/2.0/entity/Location.eb1e6cd8-eda2-4f36-8ac0-7e025458b968.Durable.json?api_key=6b5a968507f728b72bac005321001c28" xlink:title="Usage: Residential&#10;Receiving Mail: Yes&#10;Delivery Point: SingleUnit">
<path fill="none" stroke="#46a3cc" d="M155,-0.5C155,-0.5 256,-0.5 256,-0.5 262,-0.5 268,-6.5 268,-12.5 268,-12.5 268,-41.5 268,-41.5 268,-47.5 262,-53.5 256,-53.5 256,-53.5 155,-53.5 155,-53.5 149,-53.5 143,-47.5 143,-41.5 143,-41.5 143,-12.5 143,-12.5 143,-6.5 149,-0.5 155,-0.5"/>
<text text-anchor="middle" x="205.5" y="-43.1" font-family="Arial" font-size="8.00">6812 Phinney Ave N</text>
<text text-anchor="middle" x="205.5" y="-34.1" font-family="Arial" font-size="8.00">Seattle, WA 98103&#45;5238</text>
<text text-anchor="middle" x="205.5" y="-25.1" font-family="Arial" font-size="8.00">Location</text>
<text text-anchor="middle" x="205.5" y="-16.1" font-family="Arial" font-size="8.00">eb1e6cd8&#45;eda2&#45;4f36&#45;8ac0&#45;7e0</text>
<text text-anchor="middle" x="205.5" y="-7.1" font-family="Arial" font-size="8.00">Durable</text>
</a>
</g>
</g>
<!-- Tim P Bush\nPerson\ncd8a8ee8&#45;38a1&#45;4bb6&#45;a1f5&#45;650\nDurable&#45;&gt;6812 Phinney Ave N\nSeattle, WA 98103&#45;5238\nLocation\neb1e6cd8&#45;eda2&#45;4f36&#45;8ac0&#45;7e0\nDurable -->
<g id="edge3" class="edge"><title>Tim P Bush\nPerson\ncd8a8ee8&#45;38a1&#45;4bb6&#45;a1f5&#45;650\nDurable&#45;&gt;6812 Phinney Ave N\nSeattle, WA 98103&#45;5238\nLocation\neb1e6cd8&#45;eda2&#45;4f36&#45;8ac0&#45;7e0\nDurable</title>
<path fill="none" stroke="#959595" stroke-width="1.3" d="M277.942,-54.0948 333.548,-72.5965 386.638,-88.9039 426.638,-100.921"/>
<polygon fill="#959595" stroke="#959595" stroke-width="1.3" points="278.862,-50.712 268.268,-50.8621 276.643,-57.3511 278.862,-50.712"/>
<text text-anchor="middle" x="367.5" y="-74.4" font-family="Arial" font-size="7.00">historical</text>
</g>
<!-- 6719 33rd Ave NW\nSeattle, WA 98117&#45;6102\nLocation\n2c59c7c9&#45;8f73&#45;45af&#45;a7ac&#45;f65\nDurable -->
<g id="node7" class="node"><title>6719 33rd Ave NW\nSeattle, WA 98117&#45;6102\nLocation\n2c59c7c9&#45;8f73&#45;45af&#45;a7ac&#45;f65\nDurable</title>
<g id="a_node7"><a xlink:href="#https://proapi.whitepages.com/2.0/entity/Location.2c59c7c9-8f73-45af-a7ac-f65c317a3972.Durable.json?api_key=6b5a968507f728b72bac005321001c28" xlink:title="Usage: Residential&#10;Receiving Mail: Yes&#10;Delivery Point: SingleUnit">
<path fill="none" stroke="#46a3cc" d="M298.5,-0.5C298.5,-0.5 396.5,-0.5 396.5,-0.5 402.5,-0.5 408.5,-6.5 408.5,-12.5 408.5,-12.5 408.5,-41.5 408.5,-41.5 408.5,-47.5 402.5,-53.5 396.5,-53.5 396.5,-53.5 298.5,-53.5 298.5,-53.5 292.5,-53.5 286.5,-47.5 286.5,-41.5 286.5,-41.5 286.5,-12.5 286.5,-12.5 286.5,-6.5 292.5,-0.5 298.5,-0.5"/>
<text text-anchor="middle" x="347.5" y="-43.1" font-family="Arial" font-size="8.00">6719 33rd Ave NW</text>
<text text-anchor="middle" x="347.5" y="-34.1" font-family="Arial" font-size="8.00">Seattle, WA 98117&#45;6102</text>
<text text-anchor="middle" x="347.5" y="-25.1" font-family="Arial" font-size="8.00">Location</text>
<text text-anchor="middle" x="347.5" y="-16.1" font-family="Arial" font-size="8.00">2c59c7c9&#45;8f73&#45;45af&#45;a7ac&#45;f65</text>
<text text-anchor="middle" x="347.5" y="-7.1" font-family="Arial" font-size="8.00">Durable</text>
</a>
</g>
</g>
<!-- Tim P Bush\nPerson\ncd8a8ee8&#45;38a1&#45;4bb6&#45;a1f5&#45;650\nDurable&#45;&gt;6719 33rd Ave NW\nSeattle, WA 98117&#45;6102\nLocation\n2c59c7c9&#45;8f73&#45;45af&#45;a7ac&#45;f65\nDurable -->
<g id="edge4" class="edge"><title>Tim P Bush\nPerson\ncd8a8ee8&#45;38a1&#45;4bb6&#45;a1f5&#45;650\nDurable&#45;&gt;6719 33rd Ave NW\nSeattle, WA 98117&#45;6102\nLocation\n2c59c7c9&#45;8f73&#45;45af&#45;a7ac&#45;f65\nDurable</title>
<path fill="none" stroke="#959595" stroke-width="1.3" d="M395.497,-58.9279 415.586,-71.8721 438.428,-86.591 456.565,-98.2781"/>
<polygon fill="#959595" stroke="#959595" stroke-width="1.3" points="397.38,-55.9775 387.079,-53.5031 393.589,-61.8618 397.38,-55.9775"/>
<text text-anchor="middle" x="441.5" y="-74.4" font-family="Arial" font-size="7.00">historical</text>
</g>
<!-- 517 9th Ave\nSeattle, WA 98104&#45;2127\nLocation\n85a5c5a0&#45;928e&#45;49b6&#45;9db9&#45;b31\nDurable -->
<g id="node8" class="node"><title>517 9th Ave\nSeattle, WA 98104&#45;2127\nLocation\n85a5c5a0&#45;928e&#45;49b6&#45;9db9&#45;b31\nDurable</title>
<g id="a_node8"><a xlink:href="#https://proapi.whitepages.com/2.0/entity/Location.85a5c5a0-928e-49b6-9db9-b31b648ebd01.Durable.json?api_key=6b5a968507f728b72bac005321001c28" xlink:title="Usage: Not defined&#10;Receiving Mail: No&#10;Delivery Point: Not defined">
<path fill="none" stroke="#46a3cc" d="M438.5,-0.5C438.5,-0.5 540.5,-0.5 540.5,-0.5 546.5,-0.5 552.5,-6.5 552.5,-12.5 552.5,-12.5 552.5,-41.5 552.5,-41.5 552.5,-47.5 546.5,-53.5 540.5,-53.5 540.5,-53.5 438.5,-53.5 438.5,-53.5 432.5,-53.5 426.5,-47.5 426.5,-41.5 426.5,-41.5 426.5,-12.5 426.5,-12.5 426.5,-6.5 432.5,-0.5 438.5,-0.5"/>
<text text-anchor="middle" x="489.5" y="-43.1" font-family="Arial" font-size="8.00">517 9th Ave</text>
<text text-anchor="middle" x="489.5" y="-34.1" font-family="Arial" font-size="8.00">Seattle, WA 98104&#45;2127</text>
<text text-anchor="middle" x="489.5" y="-25.1" font-family="Arial" font-size="8.00">Location</text>
<text text-anchor="middle" x="489.5" y="-16.1" font-family="Arial" font-size="8.00">85a5c5a0&#45;928e&#45;49b6&#45;9db9&#45;b31</text>
<text text-anchor="middle" x="489.5" y="-7.1" font-family="Arial" font-size="8.00">Durable</text>
</a>
</g>
</g>
<!-- Tim P Bush\nPerson\ncd8a8ee8&#45;38a1&#45;4bb6&#45;a1f5&#45;650\nDurable&#45;&gt;517 9th Ave\nSeattle, WA 98104&#45;2127\nLocation\n85a5c5a0&#45;928e&#45;49b6&#45;9db9&#45;b31\nDurable -->
<g id="edge5" class="edge"><title>Tim P Bush\nPerson\ncd8a8ee8&#45;38a1&#45;4bb6&#45;a1f5&#45;650\nDurable&#45;&gt;517 9th Ave\nSeattle, WA 98104&#45;2127\nLocation\n85a5c5a0&#45;928e&#45;49b6&#45;9db9&#45;b31\nDurable</title>
<path fill="none" stroke="#959595" stroke-width="1.3" d="M489.5,-98.2781C489.5,-88.0923 489.5,-75.6036 489.5,-63.9939"/>
<polygon fill="#959595" stroke="#959595" stroke-width="1.3" points="493,-63.6704 489.5,-53.6704 486,-63.6704 493,-63.6704"/>
<text text-anchor="middle" x="503.5" y="-74.4" font-family="Arial" font-size="7.00">historical</text>
</g>
<!-- 15825 8th Ave NE\nShoreline, WA 98155&#45;6240\nLocation\n3696fe02&#45;93e5&#45;4cb2&#45;95e5&#45;28c\nDurable -->
<g id="node9" class="node"><title>15825 8th Ave NE\nShoreline, WA 98155&#45;6240\nLocation\n3696fe02&#45;93e5&#45;4cb2&#45;95e5&#45;28c\nDurable</title>
<g id="a_node9"><a xlink:href="#https://proapi.whitepages.com/2.0/entity/Location.3696fe02-93e5-4cb2-95e5-28c29387def7.Durable.json?api_key=6b5a968507f728b72bac005321001c28" xlink:title="Usage: Residential&#10;Receiving Mail: Yes&#10;Delivery Point: SingleUnit">
<path fill="none" stroke="#46a3cc" d="M583,-0.5C583,-0.5 684,-0.5 684,-0.5 690,-0.5 696,-6.5 696,-12.5 696,-12.5 696,-41.5 696,-41.5 696,-47.5 690,-53.5 684,-53.5 684,-53.5 583,-53.5 583,-53.5 577,-53.5 571,-47.5 571,-41.5 571,-41.5 571,-12.5 571,-12.5 571,-6.5 577,-0.5 583,-0.5"/>
<text text-anchor="middle" x="633.5" y="-43.1" font-family="Arial" font-size="8.00">15825 8th Ave NE</text>
<text text-anchor="middle" x="633.5" y="-34.1" font-family="Arial" font-size="8.00">Shoreline, WA 98155&#45;6240</text>
<text text-anchor="middle" x="633.5" y="-25.1" font-family="Arial" font-size="8.00">Location</text>
<text text-anchor="middle" x="633.5" y="-16.1" font-family="Arial" font-size="8.00">3696fe02&#45;93e5&#45;4cb2&#45;95e5&#45;28c</text>
<text text-anchor="middle" x="633.5" y="-7.1" font-family="Arial" font-size="8.00">Durable</text>
</a>
</g>
</g>
<!-- Tim P Bush\nPerson\ncd8a8ee8&#45;38a1&#45;4bb6&#45;a1f5&#45;650\nDurable&#45;&gt;15825 8th Ave NE\nShoreline, WA 98155&#45;6240\nLocation\n3696fe02&#45;93e5&#45;4cb2&#45;95e5&#45;28c\nDurable -->
<g id="edge6" class="edge"><title>Tim P Bush\nPerson\ncd8a8ee8&#45;38a1&#45;4bb6&#45;a1f5&#45;650\nDurable&#45;&gt;15825 8th Ave NE\nShoreline, WA 98155&#45;6240\nLocation\n3696fe02&#45;93e5&#45;4cb2&#45;95e5&#45;28c\nDurable</title>
<path fill="none" stroke="#959595" stroke-width="1.3" d="M522.898,-98.2781C541.291,-86.591 564.455,-71.8721 584.827,-58.9279"/>
<polygon fill="#959595" stroke="#959595" stroke-width="1.3" points="586.801,-61.8202 593.364,-53.5031 583.047,-55.9121 586.801,-61.8202"/>
<text text-anchor="middle" x="575.5" y="-74.4" font-family="Arial" font-size="7.00">historical</text>
</g>
<!-- 319 NW 87th St\nSeattle, WA 98117&#45;3130\nLocation\nd267b24d&#45;bdcb&#45;46b9&#45;b7ee&#45;46b\nDurable -->
<g id="node10" class="node"><title>319 NW 87th St\nSeattle, WA 98117&#45;3130\nLocation\nd267b24d&#45;bdcb&#45;46b9&#45;b7ee&#45;46b\nDurable</title>
<g id="a_node10"><a xlink:href="#https://proapi.whitepages.com/2.0/entity/Location.d267b24d-bdcb-46b9-b7ee-46b820e68fb2.Durable.json?api_key=6b5a968507f728b72bac005321001c28" xlink:title="Usage: Residential&#10;Receiving Mail: Yes&#10;Delivery Point: SingleUnit">
<path fill="none" stroke="#46a3cc" d="M726.5,-0.5C726.5,-0.5 828.5,-0.5 828.5,-0.5 834.5,-0.5 840.5,-6.5 840.5,-12.5 840.5,-12.5 840.5,-41.5 840.5,-41.5 840.5,-47.5 834.5,-53.5 828.5,-53.5 828.5,-53.5 726.5,-53.5 726.5,-53.5 720.5,-53.5 714.5,-47.5 714.5,-41.5 714.5,-41.5 714.5,-12.5 714.5,-12.5 714.5,-6.5 720.5,-0.5 726.5,-0.5"/>
<text text-anchor="middle" x="777.5" y="-43.1" font-family="Arial" font-size="8.00">319 NW 87th St</text>
<text text-anchor="middle" x="777.5" y="-34.1" font-family="Arial" font-size="8.00">Seattle, WA 98117&#45;3130</text>
<text text-anchor="middle" x="777.5" y="-25.1" font-family="Arial" font-size="8.00">Location</text>
<text text-anchor="middle" x="777.5" y="-16.1" font-family="Arial" font-size="8.00">d267b24d&#45;bdcb&#45;46b9&#45;b7ee&#45;46b</text>
<text text-anchor="middle" x="777.5" y="-7.1" font-family="Arial" font-size="8.00">Durable</text>
</a>
</g>
</g>
<!-- Tim P Bush\nPerson\ncd8a8ee8&#45;38a1&#45;4bb6&#45;a1f5&#45;650\nDurable&#45;&gt;319 NW 87th St\nSeattle, WA 98117&#45;3130\nLocation\nd267b24d&#45;bdcb&#45;46b9&#45;b7ee&#45;46b\nDurable -->
<g id="edge7" class="edge"><title>Tim P Bush\nPerson\ncd8a8ee8&#45;38a1&#45;4bb6&#45;a1f5&#45;650\nDurable&#45;&gt;319 NW 87th St\nSeattle, WA 98117&#45;3130\nLocation\nd267b24d&#45;bdcb&#45;46b9&#45;b7ee&#45;46b\nDurable</title>
<path fill="none" stroke="#959595" stroke-width="1.3" d="M552.141,-100.768C604.895,-84.9279 676.155,-63.3598 704.5,-54 704.6,-53.967 704.7,-53.934 704.8,-53.901"/>
<polygon fill="#959595" stroke="#959595" stroke-width="1.3" points="705.887,-57.228 714.254,-50.7285 703.66,-50.5917 705.887,-57.228"/>
<text text-anchor="middle" x="657.5" y="-74.4" font-family="Arial" font-size="7.00">historical</text>
</g>
<!-- 4748 SE Horstman Rd\nPort Orchard, WA 98366&#45;4901\nLocation\nbf9ff380&#45;f1c7&#45;4fe9&#45;8bdf&#45;338\nDurable -->
<g id="node11" class="node"><title>4748 SE Horstman Rd\nPort Orchard, WA 98366&#45;4901\nLocation\nbf9ff380&#45;f1c7&#45;4fe9&#45;8bdf&#45;338\nDurable</title>
<g id="a_node11"><a xlink:href="#https://proapi.whitepages.com/2.0/entity/Location.bf9ff380-f1c7-4fe9-8bdf-338d79c1b783.Durable.json?api_key=6b5a968507f728b72bac005321001c28" xlink:title="Usage: Residential&#10;Receiving Mail: Yes&#10;Delivery Point: SingleUnit">
<path fill="none" stroke="#46a3cc" d="M870.5,-0.5C870.5,-0.5 966.5,-0.5 966.5,-0.5 972.5,-0.5 978.5,-6.5 978.5,-12.5 978.5,-12.5 978.5,-41.5 978.5,-41.5 978.5,-47.5 972.5,-53.5 966.5,-53.5 966.5,-53.5 870.5,-53.5 870.5,-53.5 864.5,-53.5 858.5,-47.5 858.5,-41.5 858.5,-41.5 858.5,-12.5 858.5,-12.5 858.5,-6.5 864.5,-0.5 870.5,-0.5"/>
<text text-anchor="middle" x="918.5" y="-43.1" font-family="Arial" font-size="8.00">4748 SE Horstman Rd</text>
<text text-anchor="middle" x="918.5" y="-34.1" font-family="Arial" font-size="8.00">Port Orchard, WA 98366&#45;4901</text>
<text text-anchor="middle" x="918.5" y="-25.1" font-family="Arial" font-size="8.00">Location</text>
<text text-anchor="middle" x="918.5" y="-16.1" font-family="Arial" font-size="8.00">bf9ff380&#45;f1c7&#45;4fe9&#45;8bdf&#45;338</text>
<text text-anchor="middle" x="918.5" y="-7.1" font-family="Arial" font-size="8.00">Durable</text>
</a>
</g>
</g>
<!-- Tim P Bush\nPerson\ncd8a8ee8&#45;38a1&#45;4bb6&#45;a1f5&#45;650\nDurable&#45;&gt;4748 SE Horstman Rd\nPort Orchard, WA 98366&#45;4901\nLocation\nbf9ff380&#45;f1c7&#45;4fe9&#45;8bdf&#45;338\nDurable -->
<g id="edge8" class="edge"><title>Tim P Bush\nPerson\ncd8a8ee8&#45;38a1&#45;4bb6&#45;a1f5&#45;650\nDurable&#45;&gt;4748 SE Horstman Rd\nPort Orchard, WA 98366&#45;4901\nLocation\nbf9ff380&#45;f1c7&#45;4fe9&#45;8bdf&#45;338\nDurable</title>
<path fill="none" stroke="#959595" stroke-width="1.3" d="M552.275,-100.43C555.722,-99.5644 559.147,-98.7472 562.5,-98 685.258,-70.6425 722.771,-85.8833 848.167,-54.1324"/>
<polygon fill="#959595" stroke="#959595" stroke-width="1.3" points="849.342,-57.4436 858.149,-51.5536 847.591,-50.6661 849.342,-57.4436"/>
<text text-anchor="middle" x="770.5" y="-74.4" font-family="Arial" font-size="7.00">historical</text>
</g>
<!-- Jon Matthews\nPerson\necc14dbf&#45;688a&#45;4348&#45;9d0c&#45;78e\nDurable -->
<g id="node3" class="node"><title>Jon Matthews\nPerson\necc14dbf&#45;688a&#45;4348&#45;9d0c&#45;78e\nDurable</title>
<g id="a_node3"><a xlink:href="#https://proapi.whitepages.com/2.0/entity/Person.ecc14dbf-688a-4348-9d0c-78ebd68f6f0b.Durable.json?api_key=6b5a968507f728b72bac005321001c28" xlink:title="Name: Jon Matthews&#10;Type: Person&#10;">
<path fill="none" stroke="#8dbd40" d="M583,-98.5C583,-98.5 684,-98.5 684,-98.5 690,-98.5 696,-104.5 696,-110.5 696,-110.5 696,-130.5 696,-130.5 696,-136.5 690,-142.5 684,-142.5 684,-142.5 583,-142.5 583,-142.5 577,-142.5 571,-136.5 571,-130.5 571,-130.5 571,-110.5 571,-110.5 571,-104.5 577,-98.5 583,-98.5"/>
<text text-anchor="middle" x="633.5" y="-132.1" font-family="Arial" font-size="8.00">Jon Matthews</text>
<text text-anchor="middle" x="633.5" y="-123.1" font-family="Arial" font-size="8.00">Person</text>
<text text-anchor="middle" x="633.5" y="-114.1" font-family="Arial" font-size="8.00">ecc14dbf&#45;688a&#45;4348&#45;9d0c&#45;78e</text>
<text text-anchor="middle" x="633.5" y="-105.1" font-family="Arial" font-size="8.00">Durable</text>
</a>
</g>
</g>
<!-- Jon Matthews\nPerson\necc14dbf&#45;688a&#45;4348&#45;9d0c&#45;78e\nDurable&#45;&gt;6112 14th Ave NW Apt 3\nSeattle, WA 98107&#45;2913\nLocation\n3c464bff&#45;7a5d&#45;4457&#45;92af&#45;02f\nDurable -->
<g id="edge10" class="edge"><title>Jon Matthews\nPerson\necc14dbf&#45;688a&#45;4348&#45;9d0c&#45;78e\nDurable&#45;&gt;6112 14th Ave NW Apt 3\nSeattle, WA 98107&#45;2913\nLocation\n3c464bff&#45;7a5d&#45;4457&#45;92af&#45;02f\nDurable</title>
<path fill="none" stroke="#959595" stroke-width="1.3" d="M604.645,-187.761 607.876,-184.339 610.888,-180.737 613.5,-177 620.717,-166.675 625.616,-153.459 628.758,-142.514"/>
<polygon fill="#959595" stroke="#959595" stroke-width="1.3" points="601.996,-185.455 597.292,-194.948 606.889,-190.461 601.996,-185.455"/>
<text text-anchor="middle" x="635" y="-167.4" font-family="Arial" font-size="7.00">location</text>
</g>
<!-- 6112 14th Ave NW Apt 3\nSeattle, WA 98107&#45;2913\nLocation\n3c464bff&#45;7a5d&#45;4457&#45;92af&#45;02f\nDurable&#45;&gt;Adrianne Matthews\nPerson\nb3134c99&#45;9ebf&#45;43bb&#45;85e7&#45;a2b\nDurable -->
<g id="edge11" class="edge"><title>6112 14th Ave NW Apt 3\nSeattle, WA 98107&#45;2913\nLocation\n3c464bff&#45;7a5d&#45;4457&#45;92af&#45;02f\nDurable&#45;&gt;Adrianne Matthews\nPerson\nb3134c99&#45;9ebf&#45;43bb&#45;85e7&#45;a2b\nDurable</title>
<path fill="none" stroke="#959595" stroke-width="1.3" d="M563.028,-248.27C563.476,-258.736 563.78,-270.944 563.5,-282 563.435,-284.583 563.345,-287.259 563.24,-289.947"/>
<polygon fill="#959595" stroke="#959595" stroke-width="1.3" points="559.733,-290.04 562.777,-300.188 566.726,-290.356 559.733,-290.04"/>
<text text-anchor="middle" x="578" y="-276.4" font-family="Arial" font-size="7.00">legal</text>
<text text-anchor="middle" x="578" y="-268.4" font-family="Arial" font-size="7.00">entity at</text>
</g>
<!-- 6112 14th Ave NW Apt 3\nSeattle, WA 98107&#45;2913\nLocation\n3c464bff&#45;7a5d&#45;4457&#45;92af&#45;02f\nDurable&#45;&gt;Tim P Bush\nPerson\ncd8a8ee8&#45;38a1&#45;4bb6&#45;a1f5&#45;650\nDurable -->
<g id="edge12" class="edge"><title>6112 14th Ave NW Apt 3\nSeattle, WA 98107&#45;2913\nLocation\n3c464bff&#45;7a5d&#45;4457&#45;92af&#45;02f\nDurable&#45;&gt;Tim P Bush\nPerson\ncd8a8ee8&#45;38a1&#45;4bb6&#45;a1f5&#45;650\nDurable</title>
<path fill="none" stroke="#959595" stroke-width="1.3" d="M483.349,-152.745 483.161,-161.069 484.383,-169.754 488.5,-177 492.436,-183.927 497.959,-189.867 504.225,-194.928"/>
<polygon fill="#959595" stroke="#959595" stroke-width="1.3" points="486.858,-152.793 484.229,-142.53 479.884,-152.193 486.858,-152.793"/>
<text text-anchor="middle" x="502" y="-171.4" font-family="Arial" font-size="7.00">legal</text>
<text text-anchor="middle" x="502" y="-163.4" font-family="Arial" font-size="7.00">entity at</text>
</g>
<!-- 6112 14th Ave NW Apt 3\nSeattle, WA 98107&#45;2913\nLocation\n3c464bff&#45;7a5d&#45;4457&#45;92af&#45;02f\nDurable&#45;&gt;Jon Matthews\nPerson\necc14dbf&#45;688a&#45;4348&#45;9d0c&#45;78e\nDurable -->
<g id="edge13" class="edge"><title>6112 14th Ave NW Apt 3\nSeattle, WA 98107&#45;2913\nLocation\n3c464bff&#45;7a5d&#45;4457&#45;92af&#45;02f\nDurable&#45;&gt;Jon Matthews\nPerson\necc14dbf&#45;688a&#45;4348&#45;9d0c&#45;78e\nDurable</title>
<path fill="none" stroke="#959595" stroke-width="1.3" d="M567.053,-194.938C570.311,-183.803 575.252,-171.035 582.5,-161 585.497,-156.851 589.049,-152.924 592.863,-149.273"/>
<polygon fill="#959595" stroke="#959595" stroke-width="1.3" points="595.247,-151.838 600.443,-142.604 590.623,-146.582 595.247,-151.838"/>
<text text-anchor="middle" x="596" y="-171.4" font-family="Arial" font-size="7.00">legal</text>
<text text-anchor="middle" x="596" y="-163.4" font-family="Arial" font-size="7.00">entity at</text>
</g>
</g>
</svg>
